<svg xmlns="http://www.w3.org/2000/svg" xmlns:xlink="http://www.w3.org/1999/xlink" width="5000" height="3500"><path d="M0 0h5000v3500H0z" fill="#fff"/><path d="M4039.024 1652.859h-3010V824c0-111.803 90.634-202.437 202.437-202.437h2605.127c111.802 0 202.436 90.634 202.436 202.436v828.86z" fill="#fde5e3"/><g fill="none" stroke="#fff" stroke-miterlimit="10" stroke-width="5"><path d="M1152.291 621.563v515.648h-125.772"/><use xlink:href="#a"/><use x="125.772" y="-515.648" xlink:href="#a"/><use x="125.772" xlink:href="#a"/><use x="251.544" y="-515.648" xlink:href="#a"/><use x="251.544" xlink:href="#a"/><use x="377.317" y="-515.648" xlink:href="#a"/><use x="377.317" xlink:href="#a"/><use x="503.089" y="-515.648" xlink:href="#a"/><use x="503.089" xlink:href="#a"/><path d="M1655.38 621.563h125.772v515.648H1655.38zm0 515.648h125.772v515.648H1655.38z"/><use x="754.633" y="-515.648" xlink:href="#a"/><use x="754.633" xlink:href="#a"/><use x="880.405" y="-515.648" xlink:href="#a"/><use x="880.405" xlink:href="#a"/><use x="1006.178" y="-515.648" xlink:href="#a"/><use x="1006.178" xlink:href="#a"/><use x="1131.95" y="-515.648" xlink:href="#a"/><use x="1131.95" xlink:href="#a"/><use x="1257.722" y="-515.648" xlink:href="#a"/><use x="1257.722" xlink:href="#a"/><use x="1383.494" y="-515.648" xlink:href="#a"/><use x="1383.494" xlink:href="#a"/><use x="1509.266" y="-515.648" xlink:href="#a"/><use x="1509.266" xlink:href="#a"/><use x="1635.038" y="-515.648" xlink:href="#a"/><use x="1635.038" y=".001" xlink:href="#a"/><path d="M2787.33 621.563h125.772v515.648H2787.33zm0 515.648h125.772v515.648H2787.33z"/><use x="1886.583" y="-515.648" xlink:href="#a"/><use x="1886.583" y=".001" xlink:href="#a"/><use x="2012.355" y="-515.648" xlink:href="#a"/><use x="2012.355" xlink:href="#a"/><use x="2138.127" y="-515.648" xlink:href="#a"/><use x="2138.127" y=".001" xlink:href="#a"/><use x="2263.899" y="-515.648" xlink:href="#a"/><use x="2263.899" y=".001" xlink:href="#a"/><path d="M3416.19 621.564h125.772v515.648H3416.19zm0 515.648h125.772v515.648H3416.19z"/><use x="2515.444" y="-515.648" xlink:href="#a"/><use x="2515.444" y=".001" xlink:href="#a"/><use x="2641.216" y="-515.647" xlink:href="#a"/><use x="2641.216" y=".001" xlink:href="#a"/><use x="2766.988" y="-515.647" xlink:href="#a"/><use x="2766.988" y=".001" xlink:href="#a"/><path d="M4045.051 1137.212h-125.772V621.564"/><use x="2892.76" y=".001" xlink:href="#a"/></g><path d="M2210.772 1129.126h289.473c54.867 0 105.009 31.049 129.462 80.165l145.092 291.431c34.831 69.961-16.054 152.137-94.206 152.137h-648.457c-84.231 0-140.365-86.962-105.682-163.721l112.576-249.152c30.493-67.487 97.686-110.86 171.742-110.86z" fill="#ff6e00"/><path d="m2243.961 1128.026-163.605 524.834h513.084l-101.149-524.834h-32.867l9.677 106.306c4.485 48.76-33.895 90.833-82.861 90.833h-42.105c-52.792 0-92.239-48.527-81.457-100.206l19.994-96.932h-38.711z" fill="#fff"/><path d="m2505.133 1600.153 32.992-328.552h33.047l21.985 328.552z" fill="#573240"/><g fill="#f1b104"><path d="m2305.916 1600.153 55.005-328.552h177.204l-32.992 328.552z"/><path d="M2550.869 1271.596c-20.989 0-38.555 15.893-40.658 36.773l-1.684 16.796h-188.21l1.684-16.796c2.103-20.879 19.669-36.773 40.658-36.773h188.21z" stroke="#573240" stroke-miterlimit="10" stroke-width="5"/></g><g fill="none" stroke="#fff" stroke-miterlimit="10" stroke-width="4"><g stroke-linecap="round"><path d="M2384.484 1421.824h-3.965a21.02 21.02 0 0 0-21.016 21.016h0a4.46 4.46 0 0 0 4.46 4.46h93.607"/><path d="M2413.811 1409.646h-5.877c-15.398 0-27.881 12.483-27.881 27.88v.209a9.564 9.564 0 0 0 9.565 9.565"/><path d="M2463.501 1417.319c-3.328-9.978-12.745-17.171-23.843-17.171h-5.825c-13.878 0-25.128 11.25-25.128 25.128v11.858a10.17 10.17 0 0 0 10.166 10.166"/></g><path d="M2442.266 1441.215v-5.87c0-9.955 8.07-18.025 18.025-18.025h1.705a27.08 27.08 0 0 1 22.141 11.488l5.15 7.313c3.31 4.7-.052 11.179-5.801 11.179h-35.135a6.085 6.085 0 0 1-6.085-6.085z"/><path d="M2377.188 1468.083h92.461" stroke-linecap="round"/></g><path d="M2015.799 1652.859h525.38c9.471 0 18.51-3.961 24.929-10.924l19.761-21.435a28.594 28.594 0 0 0 7.448-22.025l-3.226-34.722h-7.781a16.096 16.096 0 0 0-15.408 11.438l-4.444 14.696a14.445 14.445 0 0 1-13.828 10.265h-61.169l8.74-2.674a28.714 28.714 0 0 0 20.293-26.432l-476.432-117.653c-63.806-15.757-125.472 32.534-125.472 98.257 0 55.897 45.313 101.209 101.209 101.209zm763.566-144.274-146.62-294.502a72.685 72.685 0 0 0-65.067-40.291h-52.556a69.29 69.29 0 0 0-64.981 45.243l-18.547 50.128c-4.721 12.76 2.381 26.845 15.447 30.636l45.123 13.093a29.14 29.14 0 0 0 32.938-12.714l12.157-19.755a18.54 18.54 0 0 1 15.79-8.823h18.125l19.28 288.124c3.507 52.413 47.045 93.134 99.575 93.134 74.111.001 122.366-77.928 89.336-144.273z" fill="#f6acc1"/><path d="m2475.455 1226.74-18.547 50.128c-4.721 12.76 2.381 26.845 15.447 30.636m25.112-75.261-18.547 50.128c-4.721 12.76 2.381 26.845 15.447 30.636m28.415-75.261-18.547 50.128c-3.139 8.484-1.052 17.554 4.541 23.794m75.913-57.005c0 11.178-9.062 20.24-20.24 20.24h-12.742" fill="none" stroke="#573240" stroke-linecap="round" stroke-miterlimit="10" stroke-width="5"/><path d="M2499.469 1110.927c-20.196-26.294-16.043-119.372-18.879-123.81-5.135-8.034-67.92-40.254-89.832-40.11-12.549.082-80.697 37.188-80.697 80.646 0 29.215 22.277 67.56 77.785 81.072s111.623 2.202 111.623 2.202z" fill="#573240"/><g fill="#f6acc1"><path d="M2446.87 1129.126v-71.283l-79.896-6.531-52.166 77.814s.487 49.473 67.682 49.473 64.38-49.473 64.38-49.473z"/><path d="M2465.45 1034.96c-1.6 17.03-6.9 34.43-11.04 45.99-2.78 7.75-11 12.1-18.98 10.07l-31.25-7.96a35.83 35.83 0 0 1-26.63-29.67l-17.61-2.57c-12.48-1.82-21.13-13.41-19.31-25.89l.66-4.55c1.82-12.48 13.41-21.13 25.9-19.31l7.77 1.13a17.02 17.02 0 0 1 9.74 4.94c6.06-16.84 16.69-33.54 34.92-32.44 2.74.17 5.32.43 7.76.78.99 7.98 4.41 20.79 15.8 28.98 9.58 6.89 17.6 7.67 22.36 7.25.93 7.35.66 15.27-.09 23.25z"/></g><g fill="none" stroke="#573240" stroke-linecap="round" stroke-miterlimit="10"><path d="M2362.768 1012.661c7.932 1.156 13.426 8.523 12.27 16.456m23.404-19.061c5.358-8.654 17.427-10.886 26.957-4.986" stroke-width="5"/><path d="M2465.652 1011.052c-15.463-1.8-28.87 5.322-31.346 33.632" stroke-width="4"/></g><g fill="#573240"><ellipse cx="2454.028" cy="1030.763" rx="6.087" ry="3.774" transform="rotate(-81.709 2454.16 1030.808)"/><ellipse cx="2414.808" cy="1023.007" rx="6.092" ry="3.777" transform="rotate(-81.709 2414.937 1023.052)"/></g><g fill="none" stroke="#573240" stroke-linecap="round" stroke-miterlimit="10"><path d="M2378.288 1050.541a35.83 35.83 0 0 0 26.988 34.72l32.357 7.957c7.976 2.031 16.197-2.32 18.975-10.068" stroke-width="5"/><path d="M2418.239 1048.132c.853 7.257 7.416 11.507 14.673 10.655" stroke-width="4"/></g><path d="M4164.185 1652.859h-115.528c-28.426 0-47.759-28.847-36.953-55.139l46.679-113.579h96.075l46.679 113.579c10.806 26.292-8.527 55.139-36.952 55.139z" fill="#ff6e00"/><ellipse fill="#573240" cx="4106.42" cy="1493.586" rx="49.529" ry="39.197"/><path d="M4121.206 1511.957V1135.75" fill="none" stroke="#f1b104" stroke-linecap="round" stroke-miterlimit="10" stroke-width="4"/><path d="M4165.211 1039.904c0 34.167-44.005 106.992-44.005 106.992s-44.005-72.825-44.005-106.992 19.702-61.865 44.005-61.865 44.005 27.698 44.005 61.865zm-106.055 140.648c11.757 19.243 12.031 75.4 12.031 75.4s-49.842-25.873-61.599-45.116-10.191-41.622 3.496-49.985 34.316.458 46.072 19.701zm11.73 97.068c16.367 8.666 37.662 52.804 37.662 52.804s-48.476 7.197-64.843-1.469-23.551-27.183-16.045-41.359 26.859-18.642 43.226-9.976zm121.773 52.365c-8.202 19.338-45.94 51.963-45.94 51.963s-2.773-49.809 5.429-69.147 23.921-31.168 35.108-26.423 13.606 24.269 5.403 43.607zm-109.854 65.212c9.474 19.452 4.156 73.335 4.156 73.335s-45.701-29.035-55.175-48.487-5.732-40.783 8.356-47.644 33.189 3.345 42.663 22.796zm184.806-20.423c-12.609 11.601-54.382 20.136-54.382 20.136s11.978-40.919 24.587-52.52 29.501-13.756 37.729-4.813 4.676 25.596-7.934 37.197zm-86.382 103.367c-7.372 8.394-33.862 16.819-33.862 16.819s4.933-27.357 12.304-35.75 18.173-10.96 24.125-5.733 4.805 16.271-2.567 24.664zm31.477-275.308c-20.096 21.665-90.833 41.958-90.833 41.958s14.931-72.059 35.027-93.724 48.88-27.639 64.291-13.345 11.611 43.447-8.485 65.111z" fill="#f1b104"/><g fill="none" stroke-width="4"><path d="M4148.894 1493.246v-117.201m0 101.57a70.566 70.566 0 0 1 28.935-56.978l53.599-39.165m-110.222 3.902a129.8 129.8 0 0 0-14.257-59.144l-38.031-74.298m-1.854 197.735 12.913 9.192a32.35 32.35 0 0 1 13.588 26.352v27.415" stroke="#f1b104" stroke-linecap="round" stroke-miterlimit="10"/><g stroke="#573240"><circle cx="4186.895" cy="1104.747" r="10.628"/><circle cx="4199.688" cy="1308.025" r="11.557"/><circle cx="4041.528" cy="1468.532" r="10.628"/><circle cx="4066.572" cy="1196.195" r="12.107"/><circle cx="4167.487" cy="1390.993" r="8.255"/><circle cx="4104.219" cy="982.407" r="10.628"/></g></g><path d="M3923.439 3084.405H1144.608c-65.219 0-118.089-52.87-118.089-118.089V1742.993h3015.009v1223.322c0 65.219-52.87 118.09-118.089 118.09z" fill="#f1b104"/><path d="M1026.519 1823.2v-80.207h3015.009v.729z" fill="#573240"/><path d="M804.573 1652.859h3435.619v90.134H804.573zM3365.03 276.823h514.188v759.595H3365.03z" fill="#fff" stroke="#573240" stroke-miterlimit="10" stroke-width="5"/><g fill="none" stroke-miterlimit="10" stroke-width="5"><g stroke="#f1b104" stroke-linecap="round"><path d="M3562.966 406.918h-6.857c-20.076 0-36.352 16.275-36.352 36.352h0a7.715 7.715 0 0 0 7.715 7.715h161.912"/><path d="M3613.692 385.854h-10.165c-26.634 0-48.225 21.591-48.225 48.225v.361c0 9.138 7.407 16.545 16.545 16.545m127.794-51.858c-5.757-17.259-22.046-29.701-41.24-29.701h-10.075c-24.005 0-43.464 19.46-43.464 43.464v20.51c0 9.711 7.873 17.584 17.584 17.584"/></g><path d="M3662.912 440.459v-10.154c0-17.219 13.958-31.177 31.177-31.177h2.95a46.84 46.84 0 0 1 38.297 19.871l8.908 12.65c5.725 8.13-.09 19.337-10.033 19.337h-60.773a10.53 10.53 0 0 1-10.526-10.527z" stroke="#f1b104"/><path d="M3444.341 539.912h213.271m-213.271 55.913h213.271m-213.271 55.913h147.232m-147.232 111.825h103.207m-103.207 55.913h103.207m-103.207-111.825h268.303" stroke="#573240" stroke-linecap="round"/><path d="M3785.063 539.912h38.345m-38.345 55.913h38.345m-38.345 55.913h38.345m-38.345 55.913h38.345m-38.345 55.912h38.345m-38.345 55.913h38.345" stroke="#f1b104" stroke-linecap="round"/></g><path d="M2791.594 276.823h514.188v759.595h-514.188z" fill="#fff" stroke="#573240" stroke-miterlimit="10" stroke-width="5"/><g fill="none" stroke="#f1b104" stroke-miterlimit="10" stroke-width="5"><path d="M3201.722 539.912h38.345m-38.345 55.913h38.345m-38.345 55.913h38.345m-38.345 55.913h38.345m-38.345 55.912h38.345m-38.345 55.913h38.345m-38.345 56.133h38.345" stroke-linecap="round"/><path d="M3113.01 370.48v34.05c0 33.16-26.89 60.05-60.05 60.05h-12.09c-33.17 0-60.06-26.89-60.06-60.05v-31.18c8.32 7.32 34.21 12.66 64.88 12.66 34.54 0 63.03-6.78 67.17-15.53h.15z"/></g><path d="M3113.37 368.28c0 .75-.18 1.48-.51 2.2-4.14 8.75-32.63 15.53-67.17 15.53-30.67 0-56.56-5.34-64.88-12.66-1.83-1.61-2.81-3.31-2.81-5.07 0-9.8 30.3-17.74 67.69-17.74 37.38 0 67.68 7.94 67.68 17.74z" fill="#f1b104"/><g fill="none" stroke-linecap="round" stroke-miterlimit="10" stroke-width="5"><path d="M3113.337 370.477h16.599c13.108 0 23.734 10.626 23.734 23.734h0c0 13.108-10.626 23.734-23.734 23.734h-17.901" stroke="#f1b104"/><path d="M2861 539.912h213.271M2861 595.825h213.271M2861 707.651h180.251M2861 763.563h182.363M2861 819.476h103.206M2861 875.609h103.206M2861 651.738h268.303" stroke="#573240"/></g><path d="M2328.763 2095.47h-522.91v-3.912c0-21.465 17.401-38.866 38.866-38.866h445.178c21.465 0 38.866 17.401 38.866 38.866v3.912z" fill="#fff"/><g fill="none" stroke="#573240" stroke-miterlimit="10" stroke-width="5"><path d="M1805.853 3208.569V2095.47h338.535v1113.099m0 0V2095.47h184.375v1113.099" stroke-linecap="round"/><path d="M1900.356 1828.1c-93.484 0-149.275 71.45-124.613 159.588l30.159 107.782h338.536l-30.159-107.782c-24.662-88.138-120.439-159.588-213.923-159.588z"/><path d="m1945.507 2095.47-45.635-266.269m168.354 79.998c-68.341 29.566-109.079 104.92-94.076 184.132m-199.607-180.498c80.103 17.332 140.374 92.515 140.374 182.637m-109.064 844.045c0-22.034 18.946-39.897 42.317-39.897h253.902c23.371 0 42.317 17.863 42.317 39.897m.011 0c0-22.034 18.946-39.897 42.317-39.897h99.804c23.371 0 42.317 17.863 42.317 39.897" stroke-linecap="round"/></g><path d="M1556.745 3084.401h-397.332l198.116-934.15h1.1z" fill="#573240"/><path d="m620.022 3208.569 26.336-124.183h512.985l-26.337 124.183m420.507-124.183 26.337 124.183" fill="none" stroke="#573240" stroke-linecap="round" stroke-miterlimit="10" stroke-width="5"/><path d="M1159.418 3084.405H646.437l198.116-934.157h512.981z" fill="#fff" stroke="#573240" stroke-miterlimit="10" stroke-width="5"/><path d="m1221.06 2213.737-45.632 204.926h-122.172l45.632-204.926z" fill="#fde5e3"/><path d="M1185.007 2650.442H824.452l15.967-72.089h360.554z" fill="#b2ddda"/><path d="M807.943 2618.523h327.535m-339.642 55.033h327.534" fill="none" stroke="#573240" stroke-linecap="round" stroke-miterlimit="10" stroke-width="5"/><circle fill="#f1b104" cx="994.149" cy="2883.701" r="114.69"/><circle fill="#f6acc1" cx="973.236" cy="2260.791" r="53.283"/><path d="M754.672 2857.667h211.38m-221.191 46.227h253.285M889.471 2305.62c31.769-41.206 97.092-69.472 172.518-69.472 76.534 0 142.667 29.102 173.897 71.296" fill="none" stroke="#573240" stroke-linecap="round" stroke-miterlimit="10" stroke-width="5"/><path d="M2976.056 1556.449h-328.671l110.064-231.285h328.671z" fill="#a9d8d5"/><g fill="none" stroke="#573240" stroke-miterlimit="10" stroke-width="5"><path d="M2957.345 1556.449h-328.671l110.064-231.285h328.671z"/><path d="M2921.856 1652.859h-92.028l-33.02-155.571h92.028z"/><path d="M3008.232 3223.177h1231.96" stroke-linecap="round"/></g><path d="m3960.751 1328.081-112.2 400.007 18.26 112.475s-235.912 103.582-420.699-97.572l-1.771-337.741-157.077-1.83 30.667-156.973c10.401-52.435 51.29-93.5 103.703-104.099l140.013-28.331a40.72 40.72 0 0 0 31.754-31.39l1.662-7.738h141.179l3.324 6.769a64.41 64.41 0 0 0 37.356 32.7l85.938 28.815c76.682 25.711 119.739 107.037 97.891 184.908z" fill="#573240"/><path d="M3858.05 3040.585s-127.344 32.139-222.297 0l-39.711-840.265-103.185 213.382c138.78 218.896 132.936 503.479 132.936 503.479-35.055 29.211-197.202 85.421-197.202 85.421l-189.014-452.409a335.88 335.88 0 0 1-4.347-247.986l210.883-559.215c53.756 58.521 111.847 91.254 167.188 108.226 31.82 9.785 62.726 14.352 91.375 15.618 86.049 3.841 151.823-21.991 161.035-25.81l1.101 598.508c-.001 0 118.329 311.812-8.762 601.051z" fill="#a9d8d5"/><path d="M3625.79 2917.178s5.843-284.582-132.929-503.479l211.81-438.011h43.59" fill="none" stroke="#573240" stroke-linecap="round" stroke-miterlimit="10" stroke-width="5"/><path d="m3678.628 3030.162-211.032 193.014h-89.649v-8.664c0-11.319 3.745-22.305 10.591-31.32 18.99-25.007 56.604-82.964 53.683-146.507 0 0 73.695-18.942 178.054-87.135l58.612 55.911c7.082 6.757 6.963 18.096-.259 24.701z" fill="#573240"/><path d="m3678.887 3007.664-216.794 197.902h-89.649" fill="none" stroke="#fff" stroke-linecap="round" stroke-miterlimit="10" stroke-width="5"/><path d="m3428.587 3002.602 13.634 34.084s87.816-25.272 178.054-87.135l-1.021-27.559s-87.44 45.552-190.667 80.61z" fill="#fff"/><path d="m3847.825 3084.405 28.617 116.218c2.825 11.472-5.859 22.554-17.674 22.554h-304.301c-10.893 0-16.094-13.393-8.056-20.745l129.045-118.027h172.369z" fill="#573240"/><path d="M3880.781 3203.365h-337.32" fill="none" stroke="#fff" stroke-linecap="round" stroke-miterlimit="10" stroke-width="5"/><path d="m3858.051 3040.582-10.225 43.823s-118.322 21.425-172.37 0v-33.58c0-.001 82.776 11.668 182.595-10.243z" fill="#fff"/><path d="m3287.264 1403.419 215.462 2.511-58.618 185.518c-10.93 34.593-43.024 58.11-79.303 58.11h-545.297c-4.369 0-6.135-5.627-2.545-8.117 36.189-25.1 166.232-104.441 458.985-181.782l11.316-56.24z" fill="#f1b104"/><g fill="#f1b104"><path d="M3736.241 1074.889h-141.179l10.28-50.168h107.368z"/><path d="M3713.31 977.64c8.57 2.61 14.8 11.58 14.8 21v7.38c0 11.543-9.357 20.9-20.9 20.9h-29.67c-3.28 13.76-15.66 23.99-30.42 23.99h-51.57a9.21 9.21 0 0 1-9.21-9.21v-34.86l-10.45-1.86a4.68 4.68 0 0 1-3.41-6.57l28.05-60.18a39.08 39.08 0 0 0 8.79.99c10.39 0 19.78-4.03 26.55-10.53h6.9c6.959 0 12.6 5.641 12.6 12.6v26.02c0 12.16 9.86 22.01 22.02 22.01-.098-6.297 4.956-11.467 11.254-11.51l24.666-.17z"/></g><path d="M3688.274 1004.83c0-8.887 7.204-16.091 16.091-16.091m-103.308 64.368h46.067c15.478 0 28.33-11.248 30.825-26.017h23.202m-98.994-73.084 20.975 2.482" fill="none" stroke="#573240" stroke-linecap="round" stroke-miterlimit="10" stroke-width="5"/><ellipse fill="#573240" cx="3611.003" cy="976.203" rx="4.255" ry="6.205"/><path d="M3588.541 1017.752s12.461 1.101 17.108-6.7" fill="none" stroke="#573240" stroke-linecap="round" stroke-linejoin="round" stroke-miterlimit="10" stroke-width="5"/><path d="M3713.31 977.64c-1.93-.59-3.98.09-6.1.09h-12.44c-7.79 0-14.45 4.79-17.21 11.59h-.17c-12.16 0-22.02-9.85-22.02-22.01v-26.02a12.6 12.6 0 0 0-12.6-12.6h-6.9c-6.77 6.5-16.16 10.53-26.55 10.53-20.59 0-37.28-15.83-37.28-35.37 0-19.53 16.69-35.36 37.28-35.36 18.73 0 34.23 13.09 36.89 30.15 43.63-5.93 50.43 30.05 50.43 30.05s24.1-6.58 29.58 13.87c3.64 13.61-4.98 26.11-12.91 35.08z" fill="#fcd4d0"/><path d="M1625.734 1439.345a14.953 14.953 0 0 1-13.329 8.112h-217.212v-10.467c0-21.562 17.544-39.106 39.106-39.106h6.163c9.278-12.756 24.313-21.066 41.252-21.066h9.499c8.475-10.038 21.154-16.433 35.308-16.433h10.071a46.175 46.175 0 0 1 43.255 29.927 49.65 49.65 0 0 1 35.925 20.824l8.915 12.646a14.966 14.966 0 0 1 1.047 15.563z" fill="#f1b104"/><g fill="none" stroke="#573240" stroke-miterlimit="10" stroke-width="5"><g stroke-linecap="round"><path d="M1441.157 1400.635h-6.857c-20.076 0-36.352 16.275-36.352 36.352v7.715h153.68m-118.135-.001v-16.906c0-26.634 21.591-48.225 48.225-48.225h10.165"/><use xlink:href="#b"/></g><use xlink:href="#c"/></g><path d="M1347.271 1439.345a14.953 14.953 0 0 1-13.329 8.112H1116.73v-10.467c0-21.562 17.545-39.106 39.106-39.106h6.163c9.278-12.756 24.313-21.066 41.252-21.066h9.499c8.475-10.038 21.154-16.433 35.308-16.433h10.071a46.175 46.175 0 0 1 43.255 29.927 49.645 49.645 0 0 1 35.925 20.824l8.915 12.646a14.966 14.966 0 0 1 1.047 15.563z" fill="#f1b104"/><g fill="none" stroke="#573240" stroke-miterlimit="10" stroke-width="5"><g stroke-linecap="round"><path d="M1162.694 1400.635h-6.857c-20.077 0-36.352 16.275-36.352 36.352v7.715h153.68m-118.135-.001v-16.906c0-26.634 21.591-48.225 48.225-48.225h10.165"/><use x="-278.463" xlink:href="#b"/></g><use x="-278.463" xlink:href="#c"/></g><circle fill="#a9d8d5" cx="1600.405" cy="1532.727" r="27.024"/><circle fill="#f6acc1" cx="1639.77" cy="1493.418" r="27.024"/><path d="m1650.892 1606.523 1.797-.425c3.256-.829 6.427-2.178 9.427-3.677a59.321 59.321 0 0 0 15.883-11.618c9.479-9.709 15.478-22.526 16.99-36a63.27 63.27 0 0 0 .393-7.044h-118.088c-.319 0 .704 9.449.846 10.307a61.835 61.835 0 0 0 2.512 9.937 61.275 61.275 0 0 0 9.427 17.509 60.08 60.08 0 0 0 14.146 13.229c3.328 2.222 6.811 4.261 10.514 5.794 3.544 1.467 7.174 1.634 10.767 2.719 6.094 1.841 10.375 7.623 10.375 13.985v7.528c0 13.307-10.434 24.093-23.301 24.093h47.515c-12.866 0-23.301-10.786-23.301-24.093v-7.531a14.71 14.71 0 0 1 5.395-11.338c2.521-2.051 5.627-2.682 8.703-3.375z" fill="none" stroke="#573240" stroke-miterlimit="10" stroke-width="5"/><circle fill="#ff6e00" cx="1668.303" cy="1537.956" r="30.545"/><circle fill="#f1b104" cx="1425.403" cy="1534.363" r="28.66"/><circle fill="#a9d8d5" cx="1462.566" cy="1493.418" r="27.024"/><circle fill="#573240" cx="1491.1" cy="1537.956" r="30.545"/><path d="m1472.583 1606.523 1.797-.425c3.255-.829 6.427-2.178 9.427-3.677a59.321 59.321 0 0 0 15.883-11.618c9.479-9.709 15.478-22.526 16.99-36a63.27 63.27 0 0 0 .393-7.044h-118.088c-.319 0 .704 9.449.846 10.307a61.835 61.835 0 0 0 2.512 9.937 61.275 61.275 0 0 0 9.427 17.509 60.1 60.1 0 0 0 14.146 13.229c3.327 2.222 6.811 4.261 10.514 5.794 3.544 1.467 7.174 1.634 10.766 2.719 6.094 1.841 10.375 7.623 10.375 13.985v7.528c0 13.307-10.434 24.093-23.301 24.093h47.515c-12.866 0-23.301-10.786-23.301-24.093v-7.531a14.71 14.71 0 0 1 5.395-11.338c2.522-2.051 5.628-2.682 8.704-3.375z" fill="none" stroke="#573240" stroke-miterlimit="10" stroke-width="5"/><circle fill="#a9d8d5" cx="1248.199" cy="1532.712" r="30.311"/><circle fill="#573240" cx="1285.362" cy="1493.418" r="27.024"/><path d="m1296.551 1606.523 1.797-.425c3.255-.829 6.427-2.178 9.427-3.677a59.321 59.321 0 0 0 15.883-11.618c9.479-9.709 15.478-22.526 16.99-36a63.27 63.27 0 0 0 .393-7.044h-118.088c-.319 0 .704 9.449.846 10.307a61.835 61.835 0 0 0 2.512 9.937 61.275 61.275 0 0 0 9.427 17.509 60.08 60.08 0 0 0 14.146 13.229c3.327 2.222 6.811 4.261 10.514 5.794 3.544 1.467 7.174 1.634 10.767 2.719 6.094 1.841 10.375 7.623 10.375 13.985v7.528c0 13.307-10.434 24.093-23.301 24.093h47.515c-12.866 0-23.301-10.786-23.301-24.093v-7.531a14.71 14.71 0 0 1 5.395-11.338c2.521-2.051 5.627-2.682 8.703-3.375z" fill="none" stroke="#573240" stroke-miterlimit="10" stroke-width="5"/><circle fill="#f6acc1" cx="1313.858" cy="1537.918" r="30.507"/><path d="m993.72 1584.62-15.24 68.24h-59.86L904 1587.4c3.25 1.55 7.4 2.49 12.64 2.49 6.95 0 15.28-1.42 18.91-6.93-.43 10.36 5.63 23.48 20.19 23.44 10.54-.03 16.63-10.15 18.18-17.28 0 0 11.25.85 19.8-4.5z" fill="#f1b104"/><path d="M916.643 1589.891c6.945 0 15.277-1.42 18.909-6.934-.432 10.366 5.625 23.487 20.186 23.444 10.546-.031 16.631-10.151 18.183-17.28 0 0 27.434 2.075 29.2-20.637 1.629-20.944-27.087-37.477-55.076-37.477-27.978 0-55.076 16.774-55.076 37.477 0 8.71 4.415 21.407 23.674 21.407z" fill="#a9d8d5"/><g fill="#573240"><circle cx="915.325" cy="1567.053" r="4.701"/><circle cx="926.895" cy="1548.202" r="4.701"/><circle cx="941.177" cy="1556.186" r="4.701"/><circle cx="959.351" cy="1581.361" r="4.701"/><circle cx="972.559" cy="1565.952" r="4.701"/><circle cx="985.766" cy="1542.839" r="4.701"/><circle cx="961.552" cy="1545.04" r="4.701"/><path d="m1011.39 1372.46-16.35 71.14h-59.86l-13.9-60.48c3.56 2.5 8.19 4.12 14.12 4.12 6.94 0 13.08-3.62 16.71-9.14 2.25 9.05 10.44 15.74 20.18 15.74 7.83 0 20.5-7.51 18.19-21.68 0 0 12.84 5.65 20.91.3z"/></g><g fill="#ff6e00"><path d="M935.4 1387.236c6.945 0 13.076-3.621 16.708-9.135a20.81 20.81 0 0 0 20.186 15.739c7.826 0 20.497-7.514 18.183-21.683 0 0 23.895 10.517 26.999-10.731 2.599-17.796-17.656-37.477-52.875-37.477-27.978 0-53.976 16.774-53.976 37.477 0 8.711 5.516 25.81 24.775 25.81z"/><circle cx="1006.049" cy="1389.537" r="7.705"/></g><g fill="#f1b104"><circle cx="932.063" cy="1348.32" r="4.701"/><circle cx="944.99" cy="1362.422" r="4.701"/><circle cx="957.916" cy="1336.568" r="4.701"/><circle cx="969.668" cy="1372.998" r="4.701"/><circle cx="981.42" cy="1348.32" r="4.701"/><circle cx="993.644" cy="1330.275" r="4.701"/><circle cx="1006.098" cy="1360.072" r="4.701"/></g><path d="m1152.45 1585.94-14.95 66.92h-59.86l-13.95-62.43c3.45 2.51 8.07 4.16 14.17 4.16 6.95 0 13.08-3.46 16.71-8.73 2.26 8.64 10.45 15.04 20.19 15.04 7.82 0 14.63-4.12 18.18-10.21 0 0 11.85 1.73 19.51-4.75z" fill="#573240"/><path d="M1077.864 1594.586a20.248 20.248 0 0 0 16.708-8.731c2.256 8.647 10.445 15.042 20.186 15.042 7.826 0 14.628-4.113 18.183-10.203 0 0 25.898 3.779 25.898-20.775 0-20.993-23.785-35.817-51.774-35.817-27.978 0-52.875 16.031-52.875 35.817 0 8.325 4.415 24.667 23.674 24.667z" fill="#f6acc1"/><g fill="#fff"><circle cx="1074.027" cy="1574.029" r="4.804"/><circle cx="1089.405" cy="1551.28" r="4.804"/><circle cx="1100.702" cy="1565.952" r="4.804"/><circle cx="1124.496" cy="1556.186" r="4.804"/><circle cx="1105.506" cy="1534.102" r="4.804"/><circle cx="1147.487" cy="1549.844" r="4.804"/><circle cx="1134.104" cy="1579.99" r="4.804"/></g><g fill="none" stroke="#573240" stroke-miterlimit="10" stroke-width="5"><path d="M1820.779 1652.859H848.932V1173h488.554c172.592 0 328.146 104.066 394.009 263.593l89.284 216.266z"/><path d="M849.602 1444.701h882.893" stroke-linecap="round"/><path d="M1236.337 1652.859H848.932v-479.121c126.431 21.121 235.153 110.351 285.166 231.498l102.239 247.623zm818.061-910.169c0 13.511-10.953 24.464-24.464 24.464s-24.464-10.953-24.464-24.464"/><path d="M2031.528 276.823v390.804" stroke-linecap="round"/></g><path d="M2224.949 742.45h-386.843a45.94 45.94 0 0 1 12.239-21.925c8.321-8.31 19.812-13.461 32.502-13.461h45.115a19.014 19.014 0 0 0 14.584-6.813l17.819-21.286a31.663 31.663 0 0 1 24.28-11.337h93.764c9.366 0 18.26 4.149 24.269 11.337l17.83 21.297a18.996 18.996 0 0 0 14.573 6.802h45.126c21.739 0 39.966 15.101 44.742 35.386z" fill="#f6acc1"/><path d="M1436.079 276.823v390.804" fill="none" stroke="#573240" stroke-linecap="round" stroke-miterlimit="10" stroke-width="5"/><path d="M1629.5 742.45h-386.843a45.94 45.94 0 0 1 12.239-21.925c8.321-8.31 19.812-13.461 32.502-13.461h45.115a19.01 19.01 0 0 0 14.583-6.813l17.819-21.286a31.66 31.66 0 0 1 24.28-11.337h93.764c9.366 0 18.26 4.149 24.269 11.337l17.83 21.297a18.996 18.996 0 0 0 14.573 6.802h45.126c21.74 0 39.967 15.101 44.743 35.386z" fill="#a9d8d5"/><path d="M1461.151 742.69c0 13.511-10.953 24.464-24.464 24.464s-24.464-10.953-24.464-24.464" fill="none" stroke="#573240" stroke-miterlimit="10" stroke-width="5"/><defs><path d="M1026.519 1137.211h125.772v515.648h-125.772z" id="a"/><path d="M1483.052 1444.701v-38.095c0-24.005 19.46-43.464 43.464-43.464h10.075c19.194 0 35.483 12.442 41.24 29.701" id="b"/><path d="M1541.102 1434.175v-10.154c0-17.219 13.958-31.177 31.177-31.177h2.95a46.84 46.84 0 0 1 38.297 19.871l8.908 12.65c5.725 8.13-.089 19.337-10.033 19.337h-60.773a10.53 10.53 0 0 1-10.526-10.527z" id="c"/></defs></svg>